PathFileType	4	(X/Y/Z)	s03c0402.trc
DataRate	CameraRate	NumFrames	NumMarkers	Units	OrigDataRate	OrigDataStartFrame	OrigNumFrames
200	200	5	50	mm	200	1000	2000
Frame#	Time	racr			lacr			c7			jug			rlel			rdr			llel			ldr			s2			lic			ric			lasi			rasi			rpsi			lpsi			rgt			lgt			rth1			rth2			rth3			rth4			rlfc			rmfc			rsh1			rsh2			rsh3			rsh4			rlmal			rcal			rtoe			rmt5			rmt1			lth1			lth2			lth4			lth3			llfc			lmfc			lsh1			lsh2			lsh3			lsh4			llmal			lcal			ltoe			lmt1			lmt5			SBIKE			LBIKE			RBIKE			
		X1	Y1	Z1	X2	Y2	Z2	X3	Y3	Z3	X4	Y4	Z4	X5	Y5	Z5	X6	Y6	Z6	X7	Y7	Z7	X8	Y8	Z8	X9	Y9	Z9	X10	Y10	Z10	X11	Y11	Z11	X12	Y12	Z12	X13	Y13	Z13	X14	Y14	Z14	X15	Y15	Z15	X16	Y16	Z16	X17	Y17	Z17	X18	Y18	Z18	X19	Y19	Z19	X20	Y20	Z20	X21	Y21	Z21	X22	Y22	Z22	X23	Y23	Z23	X24	Y24	Z24	X25	Y25	Z25	X26	Y26	Z26	X27	Y27	Z27	X28	Y28	Z28	X29	Y29	Z29	X30	Y30	Z30	X31	Y31	Z31	X32	Y32	Z32	X33	Y33	Z33	X34	Y34	Z34	X35	Y35	Z35	X36	Y36	Z36	X37	Y37	Z37	X38	Y38	Z38	X39	Y39	Z39	X40	Y40	Z40	X41	Y41	Z41	X42	Y42	Z42	X43	Y43	Z43	X44	Y44	Z44	X45	Y45	Z45	X46	Y46	Z46	X47	Y47	Z47	X48	Y48	Z48	X49	Y49	Z49	X50	Y50	Z50	
1000	5.0000	786.679133	1421.195780	-94.830371	754.527873	1383.051277	-429.719092	730.271960	1505.214335	-265.919608	723.539027	1335.153216	-246.540728	628.242177	1212.125956	62.098102	743.285302	977.671397	-21.186738	601.013759	1196.331255	-594.504077	724.396585	980.183920	-468.762826	175.804548	1288.043201	-222.505899	341.293740	1281.709424	-416.921904	354.682444	1310.182612	-50.303042	353.211577	1210.687336	-369.270915	372.202661	1232.881080	-92.894812	213.177081	1337.411656	-184.209263	210.930293	1331.369902	-266.355492	297.025171	1209.034618	-26.056778	268.786212	1173.770239	-419.982707	381.134760	1069.397756	-8.362133	450.564525	1014.208132	-12.079884	484.871075	935.858616	-10.025760	476.522716	1034.197116	-27.913626	527.955535	814.886980	-25.614062	521.548391	788.799914	-146.069204	386.032192	713.517338	-8.253711	325.132925	651.114117	-28.758509	240.679810	626.968007	-34.252714	343.821386	629.208998	-52.716829	124.325691	570.709414	-62.458617	58.751413	594.925086	-103.892772	209.494264	323.761019	-119.913909	135.727166	414.184262	-45.581299	161.677926	405.910660	-160.062778	334.991436	1029.506147	-444.058484	389.799078	962.576797	-448.337715	422.943159	977.945564	-444.223021	404.928740	874.893927	-439.924512	475.877318	761.339024	-423.504122	481.701765	745.954622	-304.013317	396.559011	606.771520	-450.484371	386.207394	523.549861	-433.584827	333.179966	450.816978	-430.944316	417.430454	513.240675	-412.478294	278.637450	335.618489	-418.186085	205.441346	300.000736	-373.689578	510.347504	241.565396	-363.180200	415.076244	256.480040	-322.495994	390.842211	236.540834	-439.833745	-219.214086	944.174075	-238.387516	-14.308818	80.355065	-437.513053	-14.253955	80.874435	-37.122845	
1001	5.0050	785.030808	1424.287459	-92.909190	755.276728	1384.586552	-428.423888	729.184390	1507.328205	-264.824747	723.798866	1336.944118	-245.061033	627.707277	1212.207982	62.188890	743.265394	977.670249	-21.078554	601.486693	1196.671556	-592.861676	724.309757	979.668620	-468.501203	176.171201	1285.678024	-223.321917	342.333244	1279.854191	-418.081423	354.648224	1309.493858	-51.526686	355.078591	1209.546982	-371.020511	372.918595	1232.616505	-94.257431	213.202613	1336.052842	-184.931856	210.999251	1329.601280	-269.808740	299.656659	1209.068079	-27.335566	268.688353	1170.390930	-420.810475	385.251717	1071.959535	-8.955214	455.780009	1018.206973	-12.567611	491.612418	940.487651	-9.956259	481.112911	1038.751940	-28.933190	536.178203	820.144746	-25.429314	529.590676	792.008323	-143.679342	393.532867	719.768352	-8.264231	331.860157	658.261807	-28.806189	247.187671	635.154132	-34.264310	350.155934	636.056480	-52.913867	130.097282	580.101792	-62.110045	64.134425	604.286111	-103.717224	215.585195	333.555096	-120.438641	141.990195	423.707501	-45.670772	167.168044	415.543987	-160.429125	332.047712	1024.301277	-443.941000	385.376461	956.206097	-448.189449	418.865588	970.880809	-444.687473	398.794379	868.245316	-438.757314	467.481816	754.450384	-422.821783	473.995931	739.333032	-303.137732	389.273758	599.720270	-450.001852	379.825605	516.406939	-433.391429	327.493224	443.147266	-430.864760	411.320373	506.250164	-412.661530	273.909693	327.486191	-418.308578	200.922075	292.919786	-373.992805	505.018963	230.317066	-362.945048	409.962726	246.691765	-322.380574	385.549112	226.719164	-439.772698	-219.212530	944.171496	-238.419978	-14.316337	80.340355	-437.510292	-14.252373	80.854368	-37.138365	
1002	5.0100	783.311060	1427.021258	-90.801336	755.959862	1386.106138	-427.060330	728.004168	1509.425830	-263.578649	724.042666	1338.696242	-243.454464	627.181154	1212.297197	62.567642	743.223777	977.709478	-20.851954	601.826981	1197.088401	-591.157582	724.212061	979.164615	-468.444953	176.610176	1283.318029	-224.435916	343.541310	1278.310000	-419.163818	354.831222	1308.117052	-53.962483	356.920899	1208.477885	-372.606384	373.543557	1231.919560	-95.253990	213.331818	1334.262923	-187.203321	211.216865	1327.308744	-271.035241	302.144149	1209.058044	-28.710586	268.783173	1167.147649	-421.785411	389.164563	1074.712228	-9.838354	460.821185	1022.300219	-13.255533	498.202202	945.376480	-10.317736	485.661204	1043.135247	-30.212856	544.306031	825.565389	-25.362024	538.592433	798.255846	-146.740014	401.042514	726.124146	-8.353148	339.666031	665.965602	-28.158544	253.692309	643.329367	-34.416348	356.692893	643.006526	-52.985884	136.191112	589.125468	-61.912704	70.133127	613.144067	-103.658099	222.622797	343.151381	-120.792784	148.706285	432.986410	-45.829812	172.818226	425.677424	-160.251977	329.351661	1019.287262	-443.793312	381.055327	950.015333	-447.895830	415.005461	963.996962	-445.151967	392.791237	861.912387	-437.497529	459.622323	747.800853	-421.639798	466.866005	732.728009	-302.182806	382.361535	593.025754	-449.544082	373.497735	509.624580	-433.186994	321.762663	435.938091	-430.800890	405.176384	499.608525	-412.715699	268.757820	320.136298	-418.534499	196.016953	286.485649	-374.430278	499.116769	219.415109	-362.597571	404.245956	237.374365	-322.199696	379.672597	217.323685	-439.702314	-219.237905	944.148974	-238.412270	-14.310465	80.317654	-437.509738	-14.253578	80.833923	-37.119085	
1003	5.0150	781.572548	1430.010422	-88.663756	756.623195	1387.592215	-425.643687	726.793348	1511.402627	-262.131768	724.120697	1340.353892	-241.938271	626.900620	1212.448392	63.186322	743.224287	977.784121	-20.440806	602.099884	1197.644365	-589.458624	724.108920	978.724598	-468.553375	177.550823	1280.712379	-226.043827	344.960522	1277.047896	-420.233207	354.396661	1307.279652	-55.288321	358.729016	1207.545655	-374.311096	373.934373	1231.581410	-96.200944	213.369449	1332.092123	-188.380039	211.519729	1325.145128	-272.214084	304.448833	1209.054128	-30.068417	268.990802	1163.835240	-422.459914	392.980965	1077.477194	-10.820051	465.636712	1026.441108	-13.984758	504.540674	950.254162	-11.171817	489.947063	1047.733267	-31.447766	552.212036	831.120262	-25.476082	547.026875	803.658652	-147.596914	408.528529	732.650295	-8.670120	346.556328	673.074495	-28.432174	260.178043	651.315027	-34.682780	363.315992	649.988465	-53.251963	142.583570	597.664872	-61.900496	75.725431	621.378570	-103.596379	230.075469	352.301213	-121.316015	155.714589	441.745719	-46.210704	180.058191	434.810282	-160.276884	326.852771	1014.558308	-443.756601	377.009031	944.087305	-447.635274	411.251102	957.366475	-445.456160	386.934356	855.897247	-436.354712	451.890433	741.598471	-420.540963	459.387986	726.671362	-301.589124	375.822921	586.700465	-449.182345	367.326659	503.206945	-433.141474	315.949884	429.298102	-430.858651	399.037520	493.335027	-412.559453	263.268716	313.406144	-418.758146	190.752814	280.819197	-374.934346	492.725564	208.600191	-362.264993	398.146173	228.561295	-322.227139	373.358833	208.400744	-439.658243	-219.298043	944.110899	-238.380490	-14.313297	80.319236	-437.520758	-14.268322	80.823628	-37.121336	
1004	5.0200	779.904643	1432.748690	-86.211294	757.291473	1389.034310	-424.109469	725.620641	1513.409676	-260.474231	724.067021	1341.733524	-240.247023	626.396172	1212.567957	64.138706	743.317460	977.940012	-19.799738	602.256315	1198.311168	-587.576885	724.178407	978.421563	-468.758624	176.990927	1278.945331	-228.065891	346.647772	1276.047166	-421.559122	353.959418	1306.506794	-56.679326	360.393503	1206.577859	-375.670486	374.249816	1231.652469	-96.976613	213.711721	1330.349901	-190.975732	211.972164	1323.022533	-273.697267	306.448016	1209.094999	-31.443136	269.425920	1160.661297	-423.449860	396.585662	1080.399412	-11.950859	470.204319	1030.745609	-14.663441	510.572963	955.190586	-11.702423	494.119118	1052.159338	-32.676843	559.890777	836.733960	-25.721339	556.134726	809.172933	-149.060403	415.937531	739.247924	-9.130778	353.384914	680.139178	-28.929344	266.932052	659.166447	-35.112077	370.013310	656.827604	-53.621908	149.206860	605.761817	-62.027377	81.994092	629.132472	-103.589386	238.118463	361.190082	-121.779091	163.823903	450.229193	-46.346095	187.718874	442.592773	-160.914537	324.529032	1010.126233	-443.879445	373.024927	938.588419	-447.541895	407.537457	951.148724	-445.765749	381.189299	850.330945	-435.343205	444.219224	735.878769	-419.516682	452.054083	720.948415	-301.046181	369.324751	580.816226	-448.880371	361.196521	497.331519	-433.076476	310.180310	423.113243	-431.161535	392.950654	487.519475	-412.361330	257.679830	307.084914	-419.040383	185.319492	275.896376	-375.540367	485.880079	198.014739	-361.766139	391.627313	220.066834	-322.128019	366.568944	200.201707	-440.039537	-219.362436	944.093656	-238.353897	-14.329320	80.331222	-437.504658	-14.276459	80.803546	-37.110118	
